<svg width="16" height="16" viewBox="0 0 16 16" fill="none" xmlns="http://www.w3.org/2000/svg">
  <mask id="mask0_27_515" style="mask-type:alpha" maskUnits="userSpaceOnUse" x="0" y="0" width="16" height="16">
    <path
      d="M0.44694 9.07901C-0.14898 8.48309 -0.14898 7.51691 0.44694 6.92099L6.92099 0.44694C7.51691 -0.14898 8.48309 -0.14898 9.07901 0.44694L15.5531 6.92099C16.149 7.51691 16.149 8.48309 15.5531 9.07901L9.07901 15.5531C8.48309 16.149 7.51691 16.149 6.92099 15.5531L0.44694 9.07901Z"
      fill="#4CAF50" />
  </mask>
  <g mask="url(#mask0_27_515)">
    <path
      d="M0.44694 9.07901C-0.14898 8.48309 -0.14898 7.51691 0.44694 6.92099L6.92099 0.44694C7.51691 -0.14898 8.48309 -0.14898 9.07901 0.44694L15.5531 6.92099C16.149 7.51691 16.149 8.48309 15.5531 9.07901L9.07901 15.5531C8.48309 16.149 7.51691 16.149 6.92099 15.5531L0.44694 9.07901Z"
      fill="#4CAF50" />
    <path fill-rule="evenodd" clip-rule="evenodd"
      d="M11.1922 9.84196V8.81944C11.6179 8.713 12.0168 8.35146 12.0168 7.88566C12.0168 7.34005 11.5712 6.89421 11.0325 6.89421C10.4937 6.89421 10.0481 7.34005 10.0481 7.89233C10.0481 8.36475 10.3386 8.73959 10.7776 8.83277V9.79977C10.7776 10.3848 10.2057 10.5737 9.72722 10.6977V10.4795C9.99382 10.4159 10.2215 10.177 10.2215 9.89889C10.2215 9.60854 10.0093 9.3655 9.73458 9.31607V9.1197C9.73458 8.13299 8.70701 8.49666 8.54336 7.95107V6.44548C8.90253 6.23256 9.14198 5.84661 9.14198 5.40744C9.14198 4.74206 8.60322 4.19641 7.93141 4.19641C7.26631 4.19641 6.72089 4.73539 6.72089 5.40744C6.72089 5.85328 6.96034 6.23923 7.31951 6.44548V9.64532C7.04682 9.51226 6.72089 9.41907 6.33511 9.37252C5.43718 9.23941 5.20951 8.8535 5.20951 8.52744V7.77554C5.64183 7.67573 5.97442 7.28312 5.97442 6.81069C5.97442 6.27171 5.52877 5.82587 4.99002 5.82587C4.45127 5.82587 4.00562 6.26504 4.00562 6.80402C4.00562 7.27649 4.33821 7.6624 4.77053 7.76888V8.52078C4.77053 9.23279 5.35074 9.66529 6.27524 9.79836C6.72089 9.86491 7.06011 9.96472 7.31951 10.1444V16.0607H8.5367L8.53669 12.6986C8.59647 12.423 8.78769 12.3595 9.03848 12.2578C9.3708 12.1687 9.72722 11.9352 9.72722 11.4464V11.1331C10.3753 10.989 11.1922 10.7881 11.1922 9.84196ZM11.0192 7.26683C10.6799 7.26683 10.4006 7.5463 10.4006 7.89233C10.4006 8.22502 10.6866 8.51115 11.0192 8.51115C11.3584 8.51115 11.6377 8.23835 11.6377 7.89233C11.6377 7.5463 11.365 7.26683 11.0192 7.26683ZM4.35816 6.80402C4.35816 7.14338 4.63751 7.42285 4.97673 7.42285C5.30928 7.42285 5.5953 7.14338 5.5953 6.80402C5.5953 6.46467 5.31595 6.18519 4.97673 6.18519C4.63751 6.18519 4.35816 6.45804 4.35816 6.80402ZM7.0734 5.39414C7.0734 5.85994 7.45252 6.23923 7.91813 6.23923C8.38373 6.23923 8.76285 5.85328 8.76285 5.38748C8.76285 4.92172 8.38373 4.54244 7.91813 4.54244C7.45252 4.54244 7.0734 4.92172 7.0734 5.39414ZM9.47871 10.4644C9.2156 10.4088 9.04148 10.185 9.04148 9.90287C9.04148 9.62397 9.23254 9.39052 9.48683 9.32515V9.14489C9.48683 8.47346 8.89691 8.67595 8.54336 8.34773V11.1395C8.76781 10.9283 9.08154 10.8469 9.44128 10.7654L9.4635 10.7604L9.47871 10.757V10.4644ZM9.62349 9.52939C9.42018 9.52939 9.25275 9.69626 9.25275 9.90287C9.25275 10.1015 9.42417 10.2724 9.62349 10.2724C9.8268 10.2724 9.99423 10.1095 9.99423 9.90287C9.99423 9.69626 9.83079 9.52939 9.62349 9.52939ZM8.5367 11.8427C8.629 11.4155 9.00471 11.2926 9.47871 11.1874V11.4212C9.47871 11.7895 9.22694 11.9444 8.95224 12.0255C8.79254 12.0726 8.66694 12.1223 8.5367 12.2444V11.8427Z"
      fill="white" />
    <path fill-rule="evenodd" clip-rule="evenodd"
      d="M7.05587 0.581812L0.581814 7.05586C0.0603838 7.57729 0.0603838 8.4227 0.581814 8.94413L7.05587 15.4182C7.5773 15.9396 8.4227 15.9396 8.94413 15.4182L15.4182 8.94413C15.9396 8.4227 15.9396 7.57729 15.4182 7.05586L8.94413 0.581812C8.4227 0.0603816 7.5773 0.0603815 7.05587 0.581812ZM0.446938 6.92099C-0.148982 7.51691 -0.148982 8.48308 0.446938 9.079L6.92099 15.5531C7.51691 16.149 8.48309 16.149 9.07901 15.5531L15.5531 9.079C16.149 8.48308 16.149 7.51691 15.5531 6.92099L9.07901 0.446935C8.48309 -0.148984 7.51691 -0.148984 6.92099 0.446935L0.446938 6.92099Z"
      fill="#29992D" />
  </g>
</svg>