<svg width="2500" height="900" viewBox="0 0 2500 900" fill="none" xmlns="http://www.w3.org/2000/svg">
  <g clip-path="url(#clip0_9_105)">
    <path d="M-4092 893.447L6592.62 893.449" stroke="white" stroke-opacity="0.1" stroke-width="2" />
    <path d="M-4092 858.41L6592.62 858.412" stroke="white" stroke-opacity="0.1" stroke-width="2" />
    <path d="M-4092 824.074L6592.62 824.075" stroke="white" stroke-opacity="0.1" stroke-width="2" />
    <path d="M-4092 790.438L6592.62 790.439" stroke="white" stroke-opacity="0.1" stroke-width="2" />
    <path d="M-4092 757.503L6592.62 757.505" stroke="white" stroke-opacity="0.1" stroke-width="2" />
    <path d="M-4092 725.268L6592.62 725.27" stroke="white" stroke-opacity="0.1" stroke-width="2" />
    <path d="M-4092 693.736L6592.62 693.738" stroke="white" stroke-opacity="0.1" stroke-width="2" />
    <path d="M-4092 662.903L6592.62 662.905" stroke="white" stroke-opacity="0.1" stroke-width="2" />
    <path d="M-4092 632.771L6592.62 632.772" stroke="white" stroke-opacity="0.1" stroke-width="2" />
    <path d="M-4092 603.339L6592.62 603.341" stroke="white" stroke-opacity="0.1" stroke-width="2" />
    <path d="M-4092 574.609L6592.62 574.611" stroke="white" stroke-opacity="0.1" stroke-width="2" />
    <path d="M-4092 546.579L6592.62 546.581" stroke="white" stroke-opacity="0.1" stroke-width="2" />
    <path d="M-4092 519.25L6592.62 519.252" stroke="white" stroke-opacity="0.1" stroke-width="2" />
    <path d="M-4092 492.622L6592.62 492.624" stroke="white" stroke-opacity="0.1" stroke-width="2" />
    <path d="M-4092 466.695L6592.62 466.697" stroke="white" stroke-opacity="0.1" stroke-width="2" />
    <path d="M-4092 441.468L6592.62 441.47" stroke="white" stroke-opacity="0.1" stroke-width="2" />
    <path d="M-4092 416.942L6592.62 416.944" stroke="white" stroke-opacity="0.1" stroke-width="2" />
    <path d="M-4092 393.117L6592.62 393.119" stroke="white" stroke-opacity="0.1" stroke-width="2" />
    <path d="M-4092 369.992L6592.62 369.994" stroke="white" stroke-opacity="0.1" stroke-width="2" />
    <path d="M-4092 347.569L6592.62 347.57" stroke="white" stroke-opacity="0.1" stroke-width="2" />
    <path d="M-4092 325.845L6592.62 325.847" stroke="white" stroke-opacity="0.1" stroke-width="2" />
    <path d="M-4092 304.823L6592.62 304.825" stroke="white" stroke-opacity="0.1" stroke-width="2" />
    <path d="M-4092 284.501L6592.62 284.503" stroke="white" stroke-opacity="0.1" stroke-width="2" />
    <path d="M-4092 264.881L6592.62 264.883" stroke="white" stroke-opacity="0.1" stroke-width="2" />
    <path d="M-4092 245.96L6592.62 245.962" stroke="white" stroke-opacity="0.1" stroke-width="2" />
    <path d="M-4092 227.741L6592.62 227.743" stroke="white" stroke-opacity="0.1" stroke-width="2" />
    <path d="M-4092 210.223L6592.62 210.225" stroke="white" stroke-opacity="0.1" stroke-width="2" />
    <path d="M-4092 193.404L6592.62 193.406" stroke="white" stroke-opacity="0.1" stroke-width="2" />
    <path d="M-4092 177.287L6592.62 177.289" stroke="white" stroke-opacity="0.1" stroke-width="2" />
    <path d="M-4092 161.871L6592.62 161.873" stroke="white" stroke-opacity="0.1" stroke-width="2" />
    <path d="M-4092 147.156L6592.62 147.158" stroke="white" stroke-opacity="0.1" stroke-width="2" />
    <path d="M-4092 133.14L6592.62 133.142" stroke="white" stroke-opacity="0.1" stroke-width="2" />
    <path d="M-4092 119.826L6592.62 119.828" stroke="white" stroke-opacity="0.1" stroke-width="2" />
    <path d="M-4092 107.214L6592.62 107.216" stroke="white" stroke-opacity="0.1" stroke-width="2" />
    <path d="M-4092 95.3007L6592.62 95.3025" stroke="white" stroke-opacity="0.1" stroke-width="2" />
    <path d="M-4092 84.0887L6592.62 84.0906" stroke="white" stroke-opacity="0.1" stroke-width="2" />
    <path d="M-4092 73.5784L6592.62 73.5802" stroke="white" stroke-opacity="0.1" stroke-width="2" />
    <path d="M-4092 63.7675L6592.62 63.7694" stroke="white" stroke-opacity="0.1" stroke-width="2" />
    <path d="M-4092 54.6578L6592.62 54.6597" stroke="white" stroke-opacity="0.1" stroke-width="2" />
    <path d="M-4092 46.249L6592.62 46.2509" stroke="white" stroke-opacity="0.1" stroke-width="2" />
    <path d="M-4092 38.5406L6592.62 38.5425" stroke="white" stroke-opacity="0.1" stroke-width="2" />
    <path d="M-4092 31.5335L6592.62 31.5354" stroke="white" stroke-opacity="0.1" stroke-width="2" />
    <path d="M-4092 25.2266L6592.62 25.2284" stroke="white" stroke-opacity="0.1" stroke-width="2" />
    <path d="M-4092 19.6204L6592.62 19.6222" stroke="white" stroke-opacity="0.1" stroke-width="2" />
    <path d="M-4092 14.7155L6592.62 14.7174" stroke="white" stroke-opacity="0.1" stroke-width="2" />
    <path d="M-4092 10.511L6592.62 10.5129" stroke="white" stroke-opacity="0.1" stroke-width="2" />
    <path d="M-4092 7.00726L6592.62 7.00913" stroke="white" stroke-opacity="0.1" stroke-width="2" />
    <path d="M-4092 4.20374L6592.62 4.2056" stroke="white" stroke-opacity="0.1" stroke-width="2" />
    <path d="M-4092 2.10193L6592.62 2.1038" stroke="white" stroke-opacity="0.1" stroke-width="2" />
    <path d="M-4092 0.700378L6592.62 0.702247" stroke="white" stroke-opacity="0.1" stroke-width="2" />
    <path d="M-4092 0L6592.62 0.00186816" stroke="white" stroke-opacity="0.1" stroke-width="2" />
    <path d="M-718.433 1449.22L1249.79 -549.999" stroke="white" stroke-opacity="0.1" stroke-width="2" />
    <path d="M3218 1449.22L1249.79 -549.999" stroke="white" stroke-opacity="0.1" stroke-width="2" />
    <path d="M-437.259 1449.22L1249.79 -549.999" stroke="white" stroke-opacity="0.1" stroke-width="2" />
    <path d="M2936.83 1449.22L1249.79 -549.999" stroke="white" stroke-opacity="0.1" stroke-width="2" />
    <path d="M406.263 1449.22L1249.79 -549.999" stroke="white" stroke-opacity="0.1" stroke-width="2" />
    <path d="M2093.31 1449.22L1249.79 -549.999" stroke="white" stroke-opacity="0.1" stroke-width="2" />
    <path d="M687.437 1449.22L1249.79 -549.999" stroke="white" stroke-opacity="0.1" stroke-width="2" />
    <path d="M1812.13 1449.22L1249.79 -549.999" stroke="white" stroke-opacity="0.1" stroke-width="2" />
    <path d="M968.611 1449.22L1249.79 -549.999" stroke="white" stroke-opacity="0.1" stroke-width="2" />
    <path d="M1249.79 1449.22L1249.79 -549.999" stroke="white" stroke-opacity="0.1" stroke-width="2" />
    <path d="M1530.96 1449.22L1249.79 -549.999" stroke="white" stroke-opacity="0.1" stroke-width="2" />
    <path d="M-156.085 1449.22L1249.79 -549.999" stroke="white" stroke-opacity="0.1" stroke-width="2" />
    <path d="M2655.66 1449.22L1249.79 -549.999" stroke="white" stroke-opacity="0.1" stroke-width="2" />
    <path d="M125.089 1449.22L1249.79 -549.999" stroke="white" stroke-opacity="0.1" stroke-width="2" />
    <path d="M2374.48 1449.22L1249.79 -549.999" stroke="white" stroke-opacity="0.1" stroke-width="2" />
    <path d="M-1280.78 1449.22L1249.78 -549.999" stroke="white" stroke-opacity="0.1" stroke-width="2" />
    <path d="M3780.35 1449.22L1249.79 -549.999" stroke="white" stroke-opacity="0.1" stroke-width="2" />
    <path d="M-999.607 1449.22L1249.79 -549.999" stroke="white" stroke-opacity="0.1" stroke-width="2" />
    <path d="M3499.18 1449.22L1249.79 -549.999" stroke="white" stroke-opacity="0.1" stroke-width="2" />
    <path d="M-1843.13 1449.22L1249.79 -549.999" stroke="white" stroke-opacity="0.1" stroke-width="2" />
    <path d="M4342.7 1449.22L1249.79 -549.999" stroke="white" stroke-opacity="0.1" stroke-width="2" />
    <path d="M-1561.96 1449.22L1249.79 -549.999" stroke="white" stroke-opacity="0.1" stroke-width="2" />
    <path d="M4061.53 1449.22L1249.79 -549.999" stroke="white" stroke-opacity="0.1" stroke-width="2" />
    <path d="M-2405.48 1449.22L1249.79 -549.999" stroke="white" stroke-opacity="0.1" stroke-width="2" />
    <path d="M4905.05 1449.22L1249.79 -549.999" stroke="white" stroke-opacity="0.1" stroke-width="2" />
    <path d="M-2124.3 1449.22L1249.79 -549.999" stroke="white" stroke-opacity="0.1" stroke-width="2" />
    <path d="M4623.87 1449.22L1249.79 -549.999" stroke="white" stroke-opacity="0.1" stroke-width="2" />
    <path d="M-2967.83 1449.22L1249.79 -549.999" stroke="white" stroke-opacity="0.1" stroke-width="2" />
    <path d="M5467.4 1449.22L1249.79 -549.999" stroke="white" stroke-opacity="0.1" stroke-width="2" />
    <path d="M-2686.65 1449.22L1249.79 -549.999" stroke="white" stroke-opacity="0.1" stroke-width="2" />
    <path d="M5186.22 1449.22L1249.78 -549.999" stroke="white" stroke-opacity="0.1" stroke-width="2" />
    <path d="M-3249 1449.22L1249.79 -549.999" stroke="white" stroke-opacity="0.1" stroke-width="2" />
    <path d="M5748.57 1449.22L1249.79 -549.999" stroke="white" stroke-opacity="0.1" stroke-width="2" />
  </g>
  <defs>
    <clipPath id="clip0_9_105">
      <rect width="2500" height="900" fill="white" />
    </clipPath>
  </defs>
</svg>