<svg width="512" height="512" viewBox="0 0 512 512" fill="none" xmlns="http://www.w3.org/2000/svg">
  <rect y="256" width="362.039" height="362.039" rx="64" transform="rotate(-45 0 256)" fill="#3DDD43" />
  <mask id="mask0_426_6097" style="mask-type:alpha" maskUnits="userSpaceOnUse" x="26" y="26" width="460" height="460">
    <rect y="256" width="362.039" height="362.039" rx="64" transform="rotate(-45 0 256)" fill="#3DDD43" />
  </mask>
  <g mask="url(#mask0_426_6097)">
    <path fill-rule="evenodd" clip-rule="evenodd"
      d="M352.283 320.021V289.215C365.149 286.008 377.206 275.115 377.206 261.082C377.206 244.644 363.738 231.212 347.456 231.212C331.173 231.212 317.704 244.644 317.704 261.283C317.704 275.516 326.485 286.809 339.752 289.616V318.75C339.752 336.376 322.468 342.066 308.007 345.801V339.227C316.064 337.312 322.944 330.115 322.944 321.736C322.944 312.988 316.533 305.666 308.23 304.177V298.261C308.23 268.534 277.174 279.49 272.228 263.053V217.693C283.083 211.278 290.32 199.65 290.32 186.419C290.32 166.373 274.037 149.934 253.733 149.934C233.632 149.934 217.148 166.172 217.148 186.419C217.148 199.851 224.385 211.479 235.24 217.693V314.097C226.998 310.088 217.148 307.28 205.488 305.878C178.351 301.868 171.47 290.241 171.47 280.418V257.765C184.536 254.758 194.588 242.929 194.588 228.696C194.588 212.458 181.119 199.026 164.836 199.026C148.554 199.026 135.085 212.257 135.085 228.495C135.085 242.729 145.137 254.356 158.203 257.564V280.217C158.203 301.668 175.738 314.698 203.679 318.707C217.148 320.712 227.4 323.719 235.24 329.132V508.959C249.842 512.71 257.886 513.236 272.026 508.959L272.026 406.083C273.833 397.782 279.612 395.867 287.192 392.803C297.235 390.12 308.007 383.086 308.007 368.359V358.92C327.593 354.578 352.283 348.525 352.283 320.021ZM347.053 242.438C336.801 242.438 328.358 250.858 328.358 261.283C328.358 271.306 337.002 279.927 347.053 279.927C357.305 279.927 365.748 271.708 365.748 261.283C365.748 250.858 357.506 242.438 347.053 242.438ZM145.74 228.495C145.74 238.719 154.183 247.139 164.435 247.139C174.485 247.139 183.129 238.719 183.129 228.495C183.129 218.271 174.687 209.851 164.435 209.851C154.183 209.851 145.74 218.071 145.74 228.495ZM227.802 186.019C227.802 200.052 239.26 211.479 253.331 211.479C267.403 211.479 278.861 199.851 278.861 185.818C278.861 171.786 267.403 160.359 253.331 160.359C239.26 160.359 227.802 171.786 227.802 186.019ZM300.496 338.774C292.545 337.098 287.282 330.355 287.282 321.856C287.282 313.453 293.057 306.42 300.742 304.451V299.02C300.742 278.791 282.913 284.892 272.228 275.003V359.113C279.011 352.749 288.493 350.297 299.365 347.843L300.037 347.692L300.496 347.588V338.774ZM304.872 310.604C298.728 310.604 293.667 315.631 293.667 321.856C293.667 327.841 298.848 332.988 304.872 332.988C311.017 332.988 316.077 328.081 316.077 321.856C316.077 315.631 311.137 310.604 304.872 310.604ZM272.026 380.298C274.816 367.428 286.171 363.725 300.496 360.556V367.6C300.496 378.697 292.887 383.361 284.585 385.805C279.759 387.225 275.963 388.722 272.026 392.401V380.298Z"
      fill="white" />
  </g>
  <rect y="256" width="362.039" height="362.039" rx="64" transform="rotate(-45 0 256)" stroke="#4CAF50"
    stroke-width="6" />
</svg>